# xmcd
#
# Track frame offsets:
#	150
#	545
#	920
#	1295
#	1670
#	2045
#	2420
#	2795
#	3170
#	3545
#	3920
#	4295
#	4670
#	24827
#	43977
#	60865
#	82232
#	99655
#	117385
#	136292
#	157952
#	178390
#	197675
#	224282
#	245132
#
# Disc length: 4208 seconds
# Revision: 142
# Processed by: cddbd v1.5.2PL0 Copyright (c) Steve Scherf et al.
# Submitted via: dBpowerAMP V12.0
#
DISCID=15106e19
DTITLE=Various Artist - Follow the Leader
DYEAR=1998
DGENRE=Rock
TTITLE0=[no artist] - [silence]
TTITLE1=[no artist] - [silence]
TTITLE2=[no artist] - [silence]
TTITLE3=[no artist] - [silence]
TTITLE4=[no artist] - [silence]
TTITLE5=[no artist] - [silence]
TTITLE6=[no artist] - [silence]
TTITLE7=[no artist] - [silence]
TTITLE8=[no artist] - [silence]
TTITLE9=[no artist] - [silence]
TTITLE10=[no artist] - [silence]
TTITLE11=[no artist] - [silence]
TTITLE12=Korn - It's On!
TTITLE13=Korn - Freak on a Leash
TTITLE14=Korn - Got the Life
TTITLE15=Korn - Dead Bodies Everywhere
TTITLE16=Korn - Children of the Korn
TTITLE17=Korn - B.B.K.
TTITLE18=Korn - Pretty
TTITLE19=Korn - All in the Family
TTITLE20=Korn - Reclaim My Place
TTITLE21=Korn - Justin
TTITLE22=Korn - Seed
TTITLE23=Korn - Cameltosis
TTITLE24=Korn - My Gift to You - Earache My Eye
EXTD=
EXTT0=
EXTT1=
EXTT2=
EXTT3=
EXTT4=
EXTT5=
EXTT6=
EXTT7=
EXTT8=
EXTT9=
EXTT10=
EXTT11=
EXTT12=
EXTT13=
EXTT14=
EXTT15=
EXTT16=
EXTT17=
EXTT18=
EXTT19=
EXTT20=
EXTT21=
EXTT22=
EXTT23=
EXTT24=
PLAYORDER=
